<svg xmlns="http://www.w3.org/2000/svg" width="96" height="96" viewBox="0 0 96 96" shape-rendering="crispEdges">
  <rect width="96" height="96" fill="none"/>
  <rect x="26" y="22" width="44" height="4" fill="#f5e8d6"/>
  <rect x="22" y="26" width="52" height="4" fill="#f5e8d6"/>
  <rect x="18" y="30" width="60" height="4" fill="#f5e8d6"/>
  <rect x="14" y="34" width="68" height="4" fill="#d9c7b0"/>
  <rect x="10" y="38" width="76" height="16" fill="#f8efe2"/>
  <rect x="14" y="54" width="68" height="4" fill="#d9c7b0"/>
  <rect x="18" y="58" width="60" height="4" fill="#c2ab8f"/>
  <rect x="24" y="62" width="48" height="4" fill="#b59674"/>
  <rect x="32" y="66" width="32" height="4" fill="#a88463"/>
  <rect x="38" y="70" width="20" height="4" fill="#8f6d52"/>
  <rect x="28" y="40" width="12" height="8" fill="#8c4a2a"/>
  <rect x="56" y="42" width="10" height="6" fill="#cf9d3e"/>
  <rect x="44" y="46" width="8" height="6" fill="#5e6d2f"/>
  <rect x="36" y="50" width="20" height="4" fill="#a55d38"/>
  <rect x="62" y="34" width="8" height="4" fill="#7d583b"/>
  <rect x="66" y="30" width="4" height="4" fill="#7d583b"/>
</svg>
