<svg xmlns="http://www.w3.org/2000/svg" width="96" height="96" viewBox="0 0 96 96" shape-rendering="crispEdges">
  <rect width="96" height="96" fill="none"/>
  <rect x="22" y="50" width="20" height="4" fill="#8d6222"/>
  <rect x="18" y="54" width="28" height="8" fill="#f1b865"/>
  <rect x="22" y="62" width="20" height="4" fill="#d89634"/>
  <rect x="26" y="58" width="12" height="4" fill="#fff0b2"/>
  <rect x="46" y="38" width="20" height="4" fill="#8d6222"/>
  <rect x="42" y="42" width="28" height="8" fill="#f1b865"/>
  <rect x="46" y="50" width="20" height="4" fill="#d89634"/>
  <rect x="50" y="46" width="12" height="4" fill="#fff0b2"/>
  <rect x="54" y="54" width="20" height="4" fill="#8d6222"/>
  <rect x="50" y="58" width="28" height="8" fill="#f1b865"/>
  <rect x="54" y="66" width="20" height="4" fill="#d89634"/>
  <rect x="58" y="62" width="12" height="4" fill="#fff0b2"/>
  <rect x="74" y="28" width="4" height="8" fill="#fff0b2"/>
  <rect x="72" y="30" width="8" height="4" fill="#fff0b2"/>
  <rect x="18" y="28" width="4" height="8" fill="#fff0b2"/>
  <rect x="16" y="30" width="8" height="4" fill="#fff0b2"/>
</svg>
